HIERARCHY
ROOT SpineBase
{
  OFFSET 0.000000 0.000000 0.000000
  CHANNELS 6 Xposition Yposition Zposition Zrotation Xrotation Yrotation
  JOINT SpineMid
  {
    OFFSET 0.000000 31.299615 0.000000
    CHANNELS 3 Zrotation Xrotation Yrotation
    JOINT SpineShoulder
    {
      OFFSET 0.000844 23.202915 -0.798674
      CHANNELS 3 Zrotation Xrotation Yrotation
      JOINT Neck
      {
        OFFSET 0.003434 7.669158 -0.573576
        CHANNELS 3 Zrotation Xrotation Yrotation
        JOINT Head
        {
          OFFSET -4.560006 12.651757 -0.298490
          CHANNELS 3 Zrotation Xrotation Yrotation
          End Site
          {
            OFFSET 0 0 0
          }
        }
      }
      JOINT ShoulderLeft
      {
        OFFSET -15.851860 -3.207765 9.142036
        CHANNELS 3 Zrotation Xrotation Yrotation
        JOINT ElbowLeft
        {
          OFFSET -1.777346 -23.563434 1.067874
          CHANNELS 3 Zrotation Xrotation Yrotation
          JOINT WristLeft
          {
            OFFSET 0.829667 -23.520776 -4.189689
            CHANNELS 3 Zrotation Xrotation Yrotation
            JOINT HandLeft
            {
              OFFSET 0.388498 -7.478291 -1.853606
              CHANNELS 3 Zrotation Xrotation Yrotation
              JOINT HandTipLeft
              {
                OFFSET 1.856322 -7.568199 -1.330540
                CHANNELS 3 Zrotation Xrotation Yrotation
                End Site
                {
                  OFFSET 0 0 0
                }
              }
              JOINT ThumbLeft
              {
                OFFSET 2.378785 0.636925 -4.949649
                CHANNELS 3 Zrotation Xrotation Yrotation
                End Site
                {
                  OFFSET 0 0 0
                }
              }
            }
          }
        }
      }
      JOINT ShoulderRight
      {
        OFFSET 13.394175 -2.228738 -10.068170
        CHANNELS 3 Zrotation Xrotation Yrotation
        JOINT ElbowRight
        {
          OFFSET 6.887315 -22.775125 -2.289517
          CHANNELS 3 Zrotation Xrotation Yrotation
          JOINT WristRight
          {
            OFFSET 1.136667 -23.092760 -4.886609
            CHANNELS 3 Zrotation Xrotation Yrotation
            JOINT HandRight
            {
              OFFSET -1.019021 -7.783676 -0.497125
              CHANNELS 3 Zrotation Xrotation Yrotation
              JOINT HandTipRight
              {
                OFFSET 0.517434 -6.474655 -0.734856
                CHANNELS 3 Zrotation Xrotation Yrotation
                End Site
                {
                  OFFSET 0 0 0
                }
              }
              JOINT ThumbRight
              {
                OFFSET -3.474003 1.371685 0.688870
                CHANNELS 3 Zrotation Xrotation Yrotation
                End Site
                {
                  OFFSET 0 0 0
                }
              }
            }
          }
        }
      }
    }
  }
  JOINT HipLeft
  {
    OFFSET -6.649977 0.213666 0.033229
    CHANNELS 3 Zrotation Xrotation Yrotation
    JOINT KneeLeft
    {
      OFFSET 4.913369 -37.940394 4.245437
      CHANNELS 3 Zrotation Xrotation Yrotation
      JOINT AnkleLeft
      {
        OFFSET 7.823957 -33.110565 4.920474
        CHANNELS 3 Zrotation Xrotation Yrotation
        JOINT FootLeft
        {
          OFFSET 2.515705 -5.348756 -5.593656
          CHANNELS 3 Zrotation Xrotation Yrotation
          End Site
          {
            OFFSET 0 0 0
          }
        }
      }
    }
  }
  JOINT HipRight
  {
    OFFSET 6.571052 1.599068 -7.054555
    CHANNELS 3 Zrotation Xrotation Yrotation
    JOINT KneeRight
    {
      OFFSET 6.894388 -32.756181 -1.027628
      CHANNELS 3 Zrotation Xrotation Yrotation
      JOINT AnkleRight
      {
        OFFSET 3.817544 -35.025038 6.802380
        CHANNELS 3 Zrotation Xrotation Yrotation
        JOINT FootRight
        {
          OFFSET -4.320050 -1.210023 -11.511093
          CHANNELS 3 Zrotation Xrotation Yrotation
          End Site
          {
            OFFSET 0 0 0
          }
        }
      }
    }
  }
}
MOTION
Frames: 10
Frame Time: 0.033333
-6.817568 174.803020 337.385064 1.774659 0.594317 44.560334 -0.037096 0.019834 -44.509868 -0.114493 -0.102360 0.062160 7.345305 1.640267 0.739038 0.000000 0.000000 0.000000 0.437750 -1.234523 0.053413 -1.964751 -6.753771 -0.420389 -7.153714 -6.013552 1.493311 2.476444 12.696474 -0.157940 0.000000 0.000000 0.000000 0.000000 0.000000 0.000000 3.782801 5.480606 0.880451 -9.190577 -12.743164 -1.739766 -3.072093 6.055627 0.685652 5.137234 -6.080923 -1.062550 0.000000 0.000000 0.000000 0.000000 0.000000 0.000000 -4.661095 0.102248 -45.051411 9.891258 -0.243162 0.840702 1.728251 14.652338 -5.830461 0.000000 0.000000 0.000000 -0.826768 7.911504 -43.286602 16.166607 -14.257145 2.292811 -6.541552 -4.417811 12.312548 0.000000 0.000000 0.000000
-8.376023 174.876812 336.441747 2.113340 0.910943 45.752177 -0.165209 -0.051633 -45.696786 -0.200726 -0.131081 0.067718 9.586564 3.056943 1.169712 0.000000 0.000000 0.000000 0.033518 -1.857252 0.071418 -0.450815 -8.285460 -0.671824 -7.407678 -11.923307 1.044802 -3.473801 13.164331 1.010451 0.000000 0.000000 0.000000 0.000000 0.000000 0.000000 3.665555 5.631213 0.935053 -10.393816 -12.224320 -1.734696 -2.790874 5.838550 0.392277 4.899767 -6.816511 -0.989115 0.000000 0.000000 0.000000 0.000000 0.000000 0.000000 -4.033298 -2.887789 -46.148232 5.782922 1.748272 0.572597 -4.414678 20.776305 4.283076 0.000000 0.000000 0.000000 -3.710055 13.756916 -43.526094 23.548866 -17.089404 3.211980 -6.010092 -7.940412 10.709711 0.000000 0.000000 0.000000
-10.239845 174.899923 335.191816 2.865605 0.977469 47.434590 -0.236447 -0.081531 -47.359116 -0.268650 -0.141286 0.092725 9.708151 4.839504 1.546611 0.000000 0.000000 0.000000 -0.706976 -2.326229 0.057575 0.917685 -9.864380 -0.904209 -7.712929 -15.651359 0.944104 -6.530240 14.392700 2.045019 0.000000 0.000000 0.000000 0.000000 0.000000 0.000000 2.677765 5.681113 0.935976 -11.065103 -11.835797 -1.671568 -1.446739 5.541486 0.015635 2.561214 -6.488350 -0.793780 0.000000 0.000000 0.000000 0.000000 0.000000 0.000000 -2.653893 -6.669570 -47.466341 -0.116621 3.747625 0.310182 -9.236741 20.146214 10.857008 0.000000 0.000000 0.000000 -6.643897 18.733028 -44.286545 27.589089 -16.911974 3.195262 -2.906941 -13.649419 11.559728 0.000000 0.000000 0.000000
-12.084700 174.748142 333.715343 3.757388 1.031921 48.356476 -0.273249 -0.081354 -48.257920 -0.309090 -0.145558 0.125717 9.509524 5.946601 1.745704 0.000000 0.000000 0.000000 -1.629277 -2.688966 0.016035 2.370155 -11.335011 -1.100713 -8.681151 -18.354981 1.167323 -12.562353 8.636725 2.719582 0.000000 0.000000 0.000000 0.000000 0.000000 0.000000 1.000952 5.319236 0.904367 -11.187704 -11.027135 -1.446710 -0.202910 5.087544 -0.339181 1.229577 -4.941213 -0.508117 0.000000 0.000000 0.000000 0.000000 0.000000 0.000000 -1.109128 -10.271692 -47.844920 -5.303876 4.861988 0.118321 -21.154276 20.223666 25.042058 0.000000 0.000000 0.000000 -9.819452 22.261779 -44.354832 28.064599 -13.699607 2.111061 3.205190 -21.644420 14.903268 0.000000 0.000000 0.000000
-14.005360 174.392668 332.440469 4.296587 0.834931 49.527462 -0.301088 -0.094199 -49.405348 -0.321815 -0.174141 0.148713 8.780590 7.264376 1.919493 0.000000 0.000000 0.000000 -2.032065 -2.542429 -0.006091 3.397478 -12.438123 -1.226270 -9.981756 -18.969795 1.645779 -8.703649 19.222918 4.224359 0.000000 0.000000 0.000000 0.000000 0.000000 0.000000 -0.896201 5.135447 0.931441 -10.000213 -10.963020 -1.345136 -0.382483 6.732855 -0.379156 1.657232 -5.564926 -0.323444 0.000000 0.000000 0.000000 0.000000 0.000000 0.000000 1.700291 -13.751801 -48.115052 -10.328359 4.392105 -0.244749 -25.858549 15.090597 28.960698 0.000000 0.000000 0.000000 -12.069751 24.434353 -44.899384 26.251099 -8.311716 0.803304 11.015535 -29.507549 21.546945 0.000000 0.000000 0.000000
-16.264352 173.821164 330.794130 5.055478 0.461890 50.587073 -0.216255 0.025800 -50.432685 -0.338332 -0.124860 0.176588 5.722384 10.283231 2.685024 0.000000 0.000000 0.000000 -2.754153 -2.212909 -0.073374 2.360493 -16.279036 -1.116317 -7.816958 -16.269454 1.488462 -14.920849 16.168195 6.927667 0.000000 0.000000 0.000000 0.000000 0.000000 0.000000 -2.464552 4.774319 0.844816 -8.938326 -11.010387 -1.225626 -0.643354 7.940287 -0.296359 1.110413 -5.605761 -0.153517 0.000000 0.000000 0.000000 0.000000 0.000000 0.000000 3.461944 -15.493952 -48.520928 -12.985430 3.933023 -0.464572 -33.118712 13.119647 36.720578 0.000000 0.000000 0.000000 -13.928135 25.996207 -45.452737 21.910150 -2.751632 -0.615164 20.732136 -34.702949 30.244645 0.000000 0.000000 0.000000
-18.386948 173.877810 329.000137 5.667428 0.151105 48.863379 -0.232498 -0.007561 -48.671996 -0.297657 -0.162532 0.208323 9.981973 8.170801 1.665308 0.000000 0.000000 0.000000 -3.357529 -1.805158 -0.117226 3.097444 -15.425960 -1.163283 -8.727204 -9.429455 2.287739 -2.601418 21.755545 2.181849 0.000000 0.000000 0.000000 0.000000 0.000000 0.000000 -4.340530 5.879836 1.188528 -6.832932 -12.268718 -1.730477 -3.571673 5.840312 0.546047 6.776259 0.073496 -0.561293 0.000000 0.000000 0.000000 0.000000 0.000000 0.000000 4.051802 -15.849600 -46.635280 -12.417194 3.283244 -0.536695 -37.118509 7.734080 38.390249 0.000000 0.000000 0.000000 -15.487824 25.981324 -43.406310 15.996763 1.755139 -1.626751 27.715440 -35.900815 36.143754 0.000000 0.000000 0.000000
-21.091194 172.815491 326.322892 6.366536 0.175367 46.690850 -0.226795 -0.016162 -46.476655 -0.253708 -0.230302 0.244590 5.458963 4.412767 0.844762 0.000000 0.000000 0.000000 -5.346237 -5.063619 0.025670 9.392425 -4.324213 -2.665124 -11.744917 -4.719092 2.818383 2.979344 17.519845 0.462568 0.000000 0.000000 0.000000 0.000000 0.000000 0.000000 -5.474428 5.609583 1.101947 -6.105418 -12.608135 -1.705327 -2.190552 0.271769 0.830923 5.312712 8.740843 -1.171569 0.000000 0.000000 0.000000 0.000000 0.000000 0.000000 2.032035 -16.949679 -44.895203 -7.873444 4.421374 -0.247350 -39.552692 6.429748 35.460608 0.000000 0.000000 0.000000 -19.504385 23.037215 -41.484466 12.374100 10.149996 -0.783198 30.533298 -37.330231 39.524561 0.000000 0.000000 0.000000
-22.455542 169.329801 322.978553 7.126002 -0.140238 43.705648 -0.238740 -0.042572 -43.444001 -0.182794 -0.310412 0.287728 0.266973 1.386176 -0.171014 0.000000 0.000000 0.000000 -5.518309 -4.083606 -0.009681 10.804161 1.742085 -3.326150 -12.451407 -0.607913 2.462952 -4.239649 7.293337 2.340130 0.000000 0.000000 0.000000 0.000000 0.000000 0.000000 -8.456826 3.416569 0.579043 -3.971513 -11.999896 -0.983015 0.000432 -2.518941 1.101558 2.804951 14.535094 -1.266778 0.000000 0.000000 0.000000 0.000000 0.000000 0.000000 -1.910516 -18.832092 -42.970277 -2.728711 7.474649 -0.257505 -35.240546 6.644910 24.560936 0.000000 0.000000 0.000000 -25.906209 21.723499 -37.872901 15.025087 15.470167 0.206113 43.229322 -44.552723 53.665100 0.000000 0.000000 0.000000
-23.049124 164.729300 319.597030 8.053121 -1.171000 38.078305 -0.257226 -0.077419 -37.706817 -0.259154 -0.272954 0.321573 -5.812166 0.559235 -0.868057 0.000000 0.000000 0.000000 -4.863921 1.185917 -0.361165 10.769050 1.487567 -2.763809 -13.464983 1.401165 2.309488 -9.121765 -0.317595 1.874004 0.000000 0.000000 0.000000 0.000000 0.000000 0.000000 -13.208303 -0.158171 -0.405821 -0.832264 -10.603976 0.189273 2.153925 -3.205915 1.244971 1.290943 18.738635 -1.315789 0.000000 0.000000 0.000000 0.000000 0.000000 0.000000 -3.733551 -21.846187 -38.053773 -1.377133 10.789327 -0.552863 -29.695596 6.242598 15.541377 0.000000 0.000000 0.000000 -32.890270 22.041300 -30.321067 20.446730 15.490925 0.004763 52.743429 -48.304632 60.469623 0.000000 0.000000 0.000000
